<?xml version="1.0" encoding="utf-8"?>
<!DOCTYPE svg PUBLIC "-//W3C//DTD SVG 20010904//EN" "http://www.w3.org/TR/2001/REC-SVG-20010904/DTD/svg10.dtd">
<svg version="1.0" xmlns="http://www.w3.org/2000/svg" width="300px" height="272px" viewBox="0 0 300 272" preserveAspectRatio="xMidYMid meet">
 <g fill="#000000">
  <path d="M0 135.5 l0 -135.5 149.5 0 149.5 0 0 135.5 0 135.5 -149.5 0 -149.5 0 0 -135.5z m256 110.5 c0 -0.5 -0.4 -1 -1 -1 -0.5 0 -1 -0.7 -1 -1.5 0 -0.8 -0.4 -1.5 -0.9 -1.5 -0.5 0 -1.1 -1.3 -1.4 -2.9 -0.3 -1.6 -1.8 -4.1 -3.2 -5.6 -1.4 -1.6 -2.5 -3.4 -2.5 -4.1 0 -0.8 -0.4 -1.4 -0.9 -1.4 -0.5 0 -1.1 -0.8 -1.4 -1.7 -0.4 -1 -2.2 -4.7 -4.2 -8.2 -3.2 -5.9 -3.5 -6.2 -3.5 -3.2 0 2.8 -0.3 3.1 -2.9 3.1 -4.8 0 -6.1 -0.9 -6.1 -4.5 0 -3.4 1.3 -4.5 5.1 -4.5 1.7 0 1.6 -0.6 -1.4 -6.3 -1.8 -3.4 -4.3 -7.7 -5.5 -9.4 -1.2 -1.7 -2.2 -3.8 -2.2 -4.6 0 -0.8 -0.6 -1.7 -1.2 -2 -0.7 -0.3 -2.9 -3.6 -4.8 -7.3 -1.9 -3.8 -4.3 -7.7 -5.2 -8.8 -1.1 -1.2 -1.8 -3.6 -1.8 -6.3 l0 -4.3 4.8 0 c2.6 0.1 6.5 0.8 8.7 1.6 2.2 0.9 6 1.9 8.5 2.4 2.5 0.5 5.8 1.3 7.3 1.9 3.1 1.2 7 -0.3 11.1 -4 1.1 -1.1 3 -2.2 4.3 -2.5 1.2 -0.3 2.4 -1.2 2.7 -2 0.3 -0.8 0.9 -1.4 1.4 -1.4 1.2 0 14.5 -8.9 15.4 -10.4 0.4 -0.6 0.8 -1.8 0.8 -2.7 0 -1.4 -0.6 -1.5 -3.7 -0.8 -2.1 0.5 -6.4 1.3 -9.5 1.9 -3.1 0.6 -6.2 1.8 -6.8 2.6 -0.7 0.7 -1.8 1.4 -2.5 1.4 -0.8 0 -1.5 0.3 -1.7 0.8 -1 2.3 -7.1 5.2 -10.9 5.2 -6.7 0 -14.2 -6.2 -13.7 -11.3 0.3 -2.9 0.7 -3.3 4.3 -3.7 2.2 -0.3 4.9 -1.1 6 -1.8 2.3 -1.4 -0.5 -1.3 -24.8 0.7 -7.6 0.6 -14.2 0.9 -14.7 0.6 -2.3 -1.4 0.5 -12.5 3.1 -12.5 0.5 0 0.9 -1 0.9 -2.3 0 -1.3 0.9 -3.3 2 -4.5 1.1 -1.2 2 -2.5 2 -3.1 0 -0.5 0.3 -1.1 0.8 -1.3 0.4 -0.1 1.9 -2.9 3.4 -6 1.5 -3.2 3.4 -5.8 4.2 -5.8 0.8 0 1.7 -1.5 2 -3.5 0.4 -1.9 1.1 -3.5 1.6 -3.5 0.6 0 1 -0.9 1 -2 0 -1.1 0.7 -2 1.5 -2 0.8 0 1.5 -0.9 1.5 -2 0 -1.1 0.5 -2 1 -2 0.6 0 1 -0.7 1 -1.5 0 -0.8 1.4 -3.7 3 -6.5 1.7 -2.8 3 -5.4 3 -5.7 0 -0.3 1.8 -3.4 4 -6.9 2.2 -3.5 4 -6.7 4 -7.2 0 -0.5 1.1 -2.1 2.5 -3.6 1.4 -1.5 2.5 -3.1 2.5 -3.7 0 -1 1.8 -4.5 3.6 -6.9 0.7 -0.8 2.4 -4 4 -7 1.5 -3 3 -5.7 3.4 -6 1.4 -1.3 3.3 -6.1 2.6 -6.7 -0.4 -0.5 -48.7 -0.9 -107.2 -1.1 l-106.5 -0.3 1.6 3 c0.8 1.6 1.9 3.3 2.5 3.6 0.5 0.3 1 1.5 1 2.5 0 1 0.4 2 0.8 2.2 1 0.4 8.8 13 12.9 20.8 1.6 3 4.1 7.4 5.6 9.7 1.5 2.4 2.7 4.9 2.7 5.8 0 0.8 0.5 1.5 1 1.5 0.6 0 1 0.8 1 1.8 0 0.9 0.8 2.2 1.8 2.8 0.9 0.6 3.5 4.7 5.7 9 2.2 4.4 4.5 8.4 5 9 0.6 0.6 1.9 2.8 3 5 1.1 2.1 2.3 4.1 2.6 4.4 1.1 1 8.9 14.9 8.9 15.9 0 0.6 0.5 1.1 1 1.1 0.6 0 1 0.7 1 1.5 0 0.9 0.9 2.5 2 3.7 1.4 1.5 2 3.6 2 6.6 l0 4.3 -10.7 -0.6 c-6 -0.4 -13.5 -1.1 -16.8 -1.6 -7.6 -1.1 -13.5 -1.1 -13.5 0 0 1 3.4 2.1 6.8 2.1 1.9 0 2.2 0.5 2.2 3.5 0 1.9 -0.3 3.5 -0.8 3.5 -0.4 0 -1.3 1.4 -2 3 -2.7 6 -10.8 7.8 -15.4 3.5 -1.5 -1.4 -3.2 -2.5 -3.7 -2.5 -0.6 0 -1.4 -0.6 -1.8 -1.2 -1.6 -2.6 -7.2 -4.7 -13.9 -5.4 -3.8 -0.4 -7.5 -1.1 -8.1 -1.7 -1 -0.7 -1.3 -0.3 -1.3 1.8 0 2.9 2.9 6 7.3 7.6 1.5 0.6 2.7 1.5 2.7 2 0 0.5 0.7 0.9 1.5 0.9 0.8 0 1.5 0.5 1.5 1 0 0.6 0.8 1 1.8 1 0.9 0 3.3 1.5 5.3 3.3 2 1.7 5.6 4.2 8 5.5 l4.4 2.2 6.5 -1.9 c15.4 -4.5 18.7 -5.2 22 -4.9 3.3 0.3 3.5 0.5 3.8 4.6 0.2 2.5 -0.1 4.2 -0.7 4.2 -0.6 0 -1.1 0.7 -1.1 1.5 0 0.8 -0.4 1.5 -1 1.5 -0.5 0 -1 0.5 -1 1 0 1.4 -9.2 17.4 -10.2 17.8 -0.4 0.2 -0.8 0.9 -0.8 1.6 0 0.7 -3 6.2 -6.8 12.2 -3.7 6 -7.3 12 -7.9 13.4 -0.7 1.4 -1.7 3.2 -2.2 4 -0.6 0.8 -3.8 6.5 -7.2 12.5 -3.4 6.1 -6.3 11.3 -6.6 11.8 -0.2 0.4 47.3 0.7 105.6 0.7 70.1 0 106.1 -0.3 106.1 -1z"/>
  <path d="M74.3 229.2 c-1.2 -2.9 1.5 -12.4 3.9 -14.2 0.4 -0.3 1.1 -1.4 1.5 -2.5 1.8 -4.4 7.7 -13.7 8.9 -14.2 0.8 -0.3 1.4 -1.4 1.4 -2.4 0 -1 0.5 -1.9 1 -1.9 0.6 0 1 -0.7 1 -1.5 0 -1.5 1.9 -5.5 3.1 -6.5 0.3 -0.3 0.8 -1.3 1.2 -2.2 0.3 -1 1.3 -1.8 2.2 -1.8 1 0 1.5 -1 1.5 -3 0 -2 0.5 -3 1.5 -3 0.9 0 1.5 -0.9 1.5 -2.4 0 -1.3 0.7 -2.9 1.5 -3.6 0.8 -0.7 1.5 -1.9 1.5 -2.7 0 -0.7 0.7 -1.6 1.5 -1.9 0.8 -0.3 2 -2.4 2.6 -4.5 1.1 -3.6 1.5 -3.9 5 -3.9 4.1 0 5.9 1.9 5.9 5.9 0 1.2 0.7 2.1 1.5 2.1 0.8 0 1.5 0.7 1.5 1.5 0 0.8 0.4 1.5 0.8 1.5 0.4 0 1.8 1.9 3 4.3 1.2 2.3 2.6 4.9 3.2 5.7 4.6 7.1 10 17.6 10 19.6 0 1.3 0.6 2.4 1.3 2.4 0.6 0 2.6 2.3 4.2 5 1.7 2.7 3.3 5 3.8 5 0.4 0 1.7 -2.1 3 -4.7 1.2 -2.7 2.5 -5 2.8 -5.3 0.9 -0.7 4.1 -6.2 8 -13.7 1.8 -3.5 4.1 -7 5.1 -8 1 -0.9 1.8 -2.3 1.8 -3.1 0 -0.8 2.4 -5.2 5.2 -9.8 5.1 -8.1 5.4 -8.4 8.8 -8.1 3 0.2 3.8 0.8 5.5 4.2 1.1 2.2 2.3 4.2 2.8 4.3 0.4 0.2 0.7 1.2 0.7 2.3 0 1 0.4 1.9 0.9 1.9 0.5 0 3.5 4.6 6.6 10.3 3.2 5.6 6.5 11.3 7.4 12.7 2.7 4.3 4 6.5 4.7 8 0.5 0.8 2.3 3.8 4.1 6.7 1.8 2.9 3.3 5.7 3.3 6.4 0 0.6 1.1 2.4 2.5 4.1 1.9 2.2 2.5 4.1 2.5 7.6 l0 4.7 -75.6 0 c-60.8 0 -75.8 -0.3 -76.1 -1.3z"/>
  <path d="M143.9 172.8 c-3.5 -7.3 -5.1 -10.1 -7.1 -12.2 -1 -1.1 -1.8 -2.4 -1.8 -2.8 0 -0.5 -1.1 -2.7 -2.6 -4.9 -5.5 -8.7 -6.4 -11 -6.4 -15.8 0 -3.4 0.7 -5.8 2.3 -8.2 1.2 -1.9 2.9 -4.9 3.6 -6.6 0.7 -1.8 1.7 -3.3 2.1 -3.3 0.4 0 1 -1 1.4 -2.3 0.3 -1.2 1.4 -3.2 2.4 -4.3 1.1 -1.1 2.5 -3.7 3.3 -5.7 0.7 -2 1.6 -3.7 1.9 -3.7 0.4 0 1.2 -1.2 1.8 -2.6 1.1 -2.2 1.7 -2.5 5.4 -2.2 4.6 0.3 5 0.8 13.4 16.8 2.1 4.1 4.5 8.1 5.2 8.8 0.6 0.7 1.2 2 1.2 2.8 0 0.8 0.5 1.4 1 1.4 0.6 0 1 0.6 1 1.4 0 0.7 0.7 1.9 1.5 2.6 1.7 1.4 2.1 9.5 0.6 10.5 -0.6 0.3 -1.6 1.8 -2.4 3.3 -2.2 4.4 -5.6 10.2 -9.3 15.9 -1.9 2.9 -3.4 5.8 -3.4 6.3 0 0.5 -0.6 1.3 -1.3 1.7 -0.7 0.4 -1.7 2.2 -2.2 3.8 -0.9 2.6 -1.6 3 -5.3 3.3 -4.1 0.3 -4.3 0.2 -6.3 -4z"/>
  <path d="M177.7 111.8 c-1.8 -2.9 -3.6 -6 -4 -6.8 -0.4 -0.8 -1.8 -3.3 -3.2 -5.5 -1.4 -2.2 -3.5 -6.1 -4.7 -8.7 -1.3 -2.7 -2.6 -4.8 -3 -4.8 -0.5 0 -0.8 -0.6 -0.8 -1.4 0 -0.8 -1 -2.7 -2.2 -4.3 -1.3 -1.5 -3.2 -4.6 -4.3 -6.8 -1.1 -2.2 -2.6 -4.6 -3.2 -5.3 -0.7 -0.7 -1.3 -2 -1.3 -2.9 0 -1.3 -0.3 -1.3 -1.5 -0.3 -0.8 0.7 -1.5 1.9 -1.5 2.6 0 0.8 -0.4 1.4 -0.9 1.4 -0.5 0 -1.1 1 -1.5 2.3 -0.3 1.2 -1.4 3.2 -2.6 4.4 -1.1 1.2 -2 2.9 -2 3.6 0 0.8 -0.7 2 -1.5 2.7 -0.8 0.7 -1.5 1.8 -1.5 2.4 0 0.6 -0.9 2.2 -2 3.6 -1.1 1.4 -2 3.2 -2 4.1 0 0.9 -0.9 2.4 -2.1 3.5 -2.7 2.4 -5.3 7.4 -3.9 7.4 1.4 0 1.2 9.6 -0.2 10.8 -0.7 0.5 -5 1.3 -9.5 1.7 -7.9 0.7 -8.1 0.6 -8.8 -1.7 -0.4 -1.2 -1.1 -2.5 -1.5 -2.8 -0.7 -0.5 -2 -2.8 -5.7 -10 -1 -1.9 -2 -3.7 -2.3 -4 -0.3 -0.3 -1.2 -1.8 -2 -3.5 -0.8 -1.6 -1.7 -3.2 -2 -3.5 -0.3 -0.3 -1.3 -1.7 -2.2 -3.1 -1.1 -1.8 -3 -2.9 -6 -3.5 -4.2 -0.9 -4.3 -1 -4.6 -5.1 -0.2 -3.3 0 -4.3 1.2 -4.3 1.3 0 1.2 -0.7 -0.5 -4.7 -1.1 -2.6 -2.3 -5 -2.7 -5.3 -2.6 -1.9 -5.4 -8.6 -6 -14.2 l-0.5 -4.8 3.7 0 c3.5 0 3.6 -0.1 3.6 -3.5 0 -3.5 0 -3.5 4.5 -3.5 4.3 0 4.5 0.1 4.5 3 l0 3 65.9 0 c36.3 0 66.6 0.3 67.5 0.6 2.5 1 1.9 6.7 -1.1 12.6 -1.6 2.9 -3.1 5.5 -3.4 5.8 -0.3 0.3 -1.4 2.1 -2.5 4 -1 1.9 -2.1 3.7 -2.4 4 -0.3 0.3 -1.8 3.1 -3.5 6.2 -1.6 3.2 -3.3 5.8 -3.7 5.8 -0.5 0 -0.8 0.6 -0.8 1.4 0 0.7 -1.1 2.5 -2.5 4 -1.4 1.5 -2.5 3.4 -2.5 4.2 0 0.8 -1.1 3.2 -2.5 5.4 -1.4 2.2 -2.5 4.4 -2.5 4.9 0 0.5 -0.7 1.1 -1.5 1.5 -0.8 0.3 -1.5 1.3 -1.5 2.2 0 0.9 -0.8 2.8 -1.8 4.2 -1 1.5 -2.2 3.5 -2.5 4.5 -0.5 1.2 -1.7 1.7 -4.6 1.7 -3.8 0 -4.3 -0.3 -7.4 -5.2z"/>
  <path d="M223.7 40.3 c-0.4 -0.3 -0.7 -2.1 -0.7 -3.9 0 -4 2.1 -5.4 7.9 -5.4 l4.1 0 0 4.4 c0 3.1 -0.5 4.6 -1.6 5 -2.1 0.8 -8.9 0.8 -9.7 -0.1z"/>
  <path d="M66.4 35.6 c-0.3 -0.8 -0.4 -2.9 -0.2 -4.8 0.3 -3.1 0.5 -3.3 4.3 -3.3 l4 0 0.3 4.8 0.3 4.7 -4.1 0 c-2.6 0 -4.3 -0.5 -4.6 -1.4z"/>
 </g>
 <g fill="#ad9622">
  <path d="M38.6 249.2 c-0.2 -0.4 1.8 -4.5 4.6 -9.2 4.4 -7.5 8.6 -14.9 13.9 -24.9 0.9 -1.6 2.3 -4.1 3.2 -5.5 1.5 -2.2 1.5 -2.6 0.1 -4 -1.4 -1.5 -1.4 -1.6 0 -1.6 0.9 0 1.6 0.6 1.6 1.3 0.1 1.4 8.7 -11.8 9.6 -14.8 0.4 -1.1 1 -2.2 1.3 -2.5 1.1 -0.8 10.1 -16.8 10.1 -17.9 0 -0.5 0.5 -1.1 1.1 -1.3 0.6 -0.2 0.1 -1.4 -1.1 -2.8 -1.2 -1.4 -2.4 -2 -2.8 -1.5 -0.4 0.6 -2.2 1.1 -4.1 1.3 -1.8 0.2 -6.7 1.4 -10.9 2.8 -8.9 2.8 -10.5 2.9 -12.1 1 -0.6 -0.8 -2.6 -2 -4.3 -2.7 -1.7 -0.7 -4.7 -2.8 -6.7 -4.6 -2 -1.8 -4.4 -3.3 -5.3 -3.3 -1 0 -1.8 -0.4 -1.8 -1 0 -0.5 -0.7 -1 -1.5 -1 -0.8 0 -1.5 -0.4 -1.5 -1 0 -0.5 -1.1 -1.2 -2.4 -1.6 -1.4 -0.3 -3.2 -1.4 -4.2 -2.5 -1.1 -1.2 -2.5 -1.7 -3.8 -1.3 -1.2 0.3 -1.6 0.2 -1.1 -0.3 0.6 -0.4 1.2 -2 1.3 -3.5 0.1 -2.2 -0.3 -2.8 -1.8 -2.8 -1.3 0 -2 -0.7 -2 -2 0 -2.2 1.5 -2.7 2.3 -0.7 0.3 0.6 0.6 0.1 0.6 -1.3 0.2 -3.1 1.7 -5.7 2.8 -4.7 0.4 0.5 0.1 1.2 -0.7 1.7 -1.1 0.7 -0.5 1 2.2 1 2 0 3.9 0.4 4.2 0.9 0.3 0.4 3.8 1.1 7.8 1.5 4 0.4 8.3 1.3 9.5 2.2 1.3 0.8 2.3 1 2.3 0.5 0 -0.5 0.7 -1.1 1.5 -1.5 1.2 -0.4 1.4 0 0.9 1.9 -0.5 1.9 -0.1 2.7 1.2 3.2 1.1 0.4 3 1.7 4.3 2.9 2 1.8 2.8 2 4.7 1.2 3 -1.4 5.8 -5.5 4.4 -6.3 -0.6 -0.4 -0.8 -1 -0.5 -1.5 0.3 -0.4 -0.7 -1.1 -2.1 -1.4 -2.8 -0.7 -8.4 -6.2 -8.4 -8.2 0 -1.2 7.4 -1.2 19.4 0.1 2.6 0.2 3.5 0 2.6 -0.5 -2.3 -1.4 -0.3 -2.4 4.2 -2.1 5.2 0.3 5.7 0.7 3.2 2.5 -1.7 1.3 -1.2 1.4 4.8 1.5 3.7 0 7.8 0.3 9.2 0.7 3.2 0.8 3.5 -1.3 0.6 -4.4 -1.1 -1.2 -2 -2.8 -2 -3.7 0 -1.8 -1.2 -1.9 -2.8 -0.3 -0.8 0.8 -1.2 0.9 -1.2 0.1 0 -0.6 0.6 -1.3 1.3 -1.6 0.9 -0.3 0.5 -1.7 -1.3 -5.1 -1.3 -2.5 -2.8 -4.6 -3.2 -4.6 -0.5 0 -0.7 -0.3 -0.6 -0.7 0.2 -0.8 -2.1 -5.4 -3.1 -6.3 -0.3 -0.3 -1.7 -2.6 -3.1 -5.3 -1.8 -3.5 -3 -4.7 -4.7 -4.7 -1.3 0 -2.3 -0.4 -2.3 -1 0 -0.5 0.7 -1 1.5 -1 1.1 0 0.5 -1.7 -2.1 -6.7 -4.7 -8.7 -5.1 -9.2 -7.4 -8.6 -1.1 0.3 -2 0 -2 -0.6 0 -0.6 0.5 -1.1 1 -1.1 0.6 0 1 -0.7 1 -1.5 0 -0.8 -0.9 -1.5 -1.9 -1.5 -2.5 0 -3.6 -1.6 -1.6 -2.4 1.3 -0.5 1.3 -0.9 0.3 -2.5 -0.8 -1.3 -1.5 -1.6 -1.9 -0.9 -0.8 1.3 -3.9 0.4 -3.9 -1.2 0 -0.5 1 -1 2.1 -1 1.7 0 1.9 -0.3 1 -1.4 -0.6 -0.7 -2.8 -4.6 -4.9 -8.5 -2.1 -3.9 -4.6 -8.1 -5.7 -9.4 -1 -1.2 -1.9 -2.4 -1.8 -2.7 0 -0.3 -0.9 -2.2 -2.1 -4.3 -1.7 -3 -2.5 -3.7 -4.3 -3.2 -2.7 0.6 -3.1 -1.2 -0.7 -2.9 1.4 -1.1 1.4 -1.3 -0.1 -2.6 -1.4 -1.2 -1.7 -1 -2.2 0.9 -0.4 1.7 -0.8 1.9 -1.4 0.9 -1.3 -2 -1 -3.8 0.6 -3.8 1.2 0 1 -1 -1 -5 l-2.5 -5 114 0 114 0.1 -1.5 2.9 c-0.8 1.6 -1.9 3.1 -2.4 3.5 -0.6 0.3 -0.8 1.4 -0.6 2.5 0.2 1.2 0 1.8 -0.6 1.4 -0.6 -0.3 -1.3 0.3 -1.6 1.5 -0.3 1.2 -1 2.1 -1.5 2.1 -0.5 0 -0.6 0.5 -0.3 1 0.3 0.6 0.1 1 -0.4 1 -0.6 0 -1.1 0.4 -1.1 0.9 0 0.8 -3.5 7.1 -7.2 12.9 -0.9 1.5 -1.7 3.4 -1.7 4.3 -0.1 0.9 -0.9 2 -1.8 2.3 -1.4 0.6 -1.5 0.9 -0.4 1.6 1.5 0.9 0.8 4 -0.8 4 -0.6 0 -0.7 -0.7 -0.4 -1.7 0.4 -1.1 0.3 -1.4 -0.5 -0.9 -0.7 0.4 -1.2 1.2 -1.2 1.7 0 0.6 -1.5 3.4 -3.4 6.4 -1.9 2.9 -3.2 5.6 -2.9 5.9 0.4 0.3 0.1 0.6 -0.5 0.6 -0.7 0 -1.2 0.4 -1.2 1 0 0.5 -1.3 3.2 -3 6 -1.6 2.8 -3 6 -3 7.1 0 1.1 -0.5 1.7 -1 1.4 -0.6 -0.3 -1 0.4 -1 1.7 0 4.5 -1.2 6.9 -3 6.3 -1.2 -0.4 -1.9 0.1 -2.3 1.4 -0.3 1.4 -0.1 1.8 1 1.4 1.3 -0.5 1.3 -0.3 0.2 1.6 -0.8 1.1 -2.2 2.1 -3.1 2.1 -1 0 -2.6 1.7 -3.9 4.1 -1.1 2.3 -1.6 3.8 -1 3.4 0.6 -0.3 1.1 0.1 1.1 0.9 0 2 -1.7 3 -2.3 1.4 -0.3 -0.8 -0.6 -0.6 -0.6 0.5 -0.1 0.9 -0.6 1.7 -1.1 1.7 -0.6 0 -0.9 0.3 -0.8 0.8 0.2 0.4 -0.7 1.8 -2 3.2 -1.3 1.4 -2 3.1 -1.6 4 1.6 3.8 1.6 5 0.1 5 -0.8 0 -1.7 -0.5 -1.9 -1.2 -0.3 -0.7 -1.1 0.2 -2 1.9 -1.9 3.7 -1.5 4.4 2.1 3.7 1.4 -0.3 5.5 -0.7 9.1 -0.9 24.6 -1.5 29.1 -1.8 29.6 -2.6 0.2 -0.4 1.1 -0.6 1.9 -0.3 0.8 0.4 1.2 1.1 0.9 1.6 -0.4 0.6 0.2 0.8 1.5 0.3 1.6 -0.5 2.1 -0.2 2.1 1 0 1.1 -0.6 1.5 -1.9 1 -1.8 -0.5 -5.1 1.7 -5.1 3.4 0 1.2 -4.8 3.1 -8 3.1 -3.2 0 -4.8 1.5 -2.6 2.3 0.8 0.3 1.7 0.1 2 -0.6 0.3 -0.7 0.4 -0.3 0.1 0.8 -0.3 1.5 0.5 2.6 3 4.2 4.3 2.9 4.6 2.8 9 -0.1 3.2 -2.2 3.4 -2.5 1.5 -3.1 -1.1 -0.4 -1.8 -1.1 -1.4 -1.6 0.4 -0.7 1 -0.6 1.8 0 1.4 1.2 3.9 0.9 5.7 -0.5 2.3 -1.8 5.1 -2.7 9.9 -3.1 2.5 -0.3 6.9 -1.1 9.9 -1.9 4.4 -1.1 5.7 -1.1 6.3 -0.1 1.4 2.2 -1.5 14.3 -3.2 13.2 -0.4 -0.2 -3.3 1.3 -6.4 3.5 -3.1 2.2 -6.1 4 -6.6 4 -0.5 0 -1.3 0.6 -1.7 1.3 -0.4 0.6 -2.5 2.1 -4.5 3.1 -2.1 1.1 -3.8 2.6 -3.8 3.4 0 0.9 -0.3 1.2 -0.6 0.9 -0.4 -0.4 -2.4 0.3 -4.6 1.5 -3.8 2.2 -3.9 2.2 -9 0.3 -2.8 -1 -6.7 -2 -8.6 -2.2 -1.9 -0.2 -4.6 -1 -6.1 -1.8 -1.5 -0.7 -4.3 -1.6 -6.4 -2 -4.2 -0.8 -5 0.7 -1.9 4.1 0.9 1.1 3.3 5 5.2 8.8 1.9 3.7 3.9 7 4.4 7.3 0.5 0.4 0.6 0 0.1 -0.7 -0.5 -0.8 -0.3 -1.1 0.6 -0.8 0.8 0.3 1.3 1.5 1.1 2.8 -0.3 2.6 4.9 10.1 5.6 8.1 0.2 -0.7 -0.6 -2.3 -1.9 -3.7 -1.9 -2 -2 -2.4 -0.5 -2.4 2.1 0 4.1 4.9 2.8 7 -0.9 1.5 1.8 7.7 4 9.1 0.5 0.3 0.9 0.8 0.7 1 -0.5 0.9 1.3 4.9 2.2 4.9 0.5 0 0.9 0.7 0.9 1.5 0 0.8 0.5 1.5 1.2 1.5 0.6 0 0.9 0.3 0.5 0.6 -0.3 0.3 0.8 2.8 2.4 5.5 1.6 2.8 2.9 5.4 2.9 5.9 0 0.6 0.5 1 1 1 0.6 0 1 0.6 1 1.4 0 2 2.1 3.1 3 1.7 0.5 -0.8 1.2 -0.4 2.4 1.4 1.3 2 1.5 3 0.6 4 -0.8 1 -0.8 1.5 0 2 0.6 0.4 0.9 1.3 0.6 2 -0.2 0.7 0.2 1.6 1 1.9 0.8 0.3 1.4 0 1.4 -0.7 0 -0.7 0.5 -0.4 1.1 0.6 0.6 0.9 0.7 2.6 0.4 3.7 -0.4 1.3 -0.1 2.2 0.9 2.6 1.2 0.5 1.3 1 0.5 2.5 -0.9 1.8 -3.9 1.9 -111.4 1.9 -60.7 0 -110.6 -0.3 -110.9 -0.8z m184.4 -23.3 c0 -2.8 -4.1 -7.1 -6.1 -6.6 -1.1 0.3 -1.9 0.1 -1.9 -0.4 0 -0.5 0.7 -0.9 1.5 -0.9 2.2 0 1.9 -1.5 -1.8 -7.3 -1.8 -2.9 -3.6 -5.9 -4 -6.7 -0.4 -0.8 -1.6 -2.8 -2.7 -4.5 -1.1 -1.6 -2.9 -4.8 -4.1 -7 -3.9 -7.4 -9.3 -16 -10.3 -16.7 -0.6 -0.4 -0.7 -0.8 -0.3 -0.8 0.5 0 0.5 -0.5 0.2 -1 -0.4 -0.7 -1.2 -0.7 -2.5 0 -1.3 0.7 -1.9 0.6 -2.4 -0.5 -0.3 -0.9 0 -1.5 0.9 -1.5 0.8 0 1.5 -0.7 1.5 -1.5 0 -1.1 -0.7 -1.4 -2.5 -0.9 -1.9 0.5 -2.5 0.2 -2.5 -1 0 -0.9 0.8 -1.6 1.8 -1.7 1 0 1.2 -0.3 0.4 -0.6 -0.6 -0.2 -1 -0.9 -0.6 -1.4 0.3 -0.5 -0.8 -0.9 -2.4 -0.9 -2.5 0 -3.6 0.9 -7.1 6.3 -2.2 3.5 -4.1 7 -4.1 7.9 0 0.8 -0.8 2.2 -1.8 3.1 -1 1 -3.3 4.5 -5.1 8 -1.8 3.4 -4.1 7.8 -5.3 9.6 -1.9 3.3 -1.9 3.6 -0.2 4.8 1 0.7 1.5 1.5 1.2 1.8 -0.3 0.3 -1.1 -0.1 -1.8 -1 -1.3 -1.6 -3.2 -2.1 -2.8 -0.7 0.1 0.4 -0.6 2.2 -1.5 4 -1 1.7 -1.3 3.2 -0.7 3.2 0.5 0 1 1 1 2.3 -0.1 2.1 -0.1 2.1 -1.5 0.4 -1.3 -1.8 -1.4 -1.8 -2.4 0.2 -1.5 2.7 -1.4 4.1 0.4 4.1 0.8 0 1.5 0.5 1.5 1 0 1.6 -2.7 1.2 -3.4 -0.5 -0.3 -0.8 -1.2 -1.5 -2 -1.5 -0.8 0 -1.7 -0.8 -2 -1.8 -1.1 -3.3 -7.4 -12.3 -7.8 -11.1 -0.7 2 -3.8 0.2 -3.8 -2.1 0 -1.1 0.5 -2 1 -2 0.6 0 1 -0.4 1 -0.9 0 -0.8 -7.2 -13.7 -10 -18.1 -0.6 -0.8 -2 -3.4 -3.2 -5.7 -1.2 -2.4 -2.6 -4.3 -3 -4.3 -0.4 0 -0.8 -0.7 -0.8 -1.6 0 -1.2 -0.7 -1.5 -2.5 -1.2 -2.6 0.5 -3.7 -1.6 -1.3 -2.4 1 -0.4 1 -1 0.1 -3.1 -1.8 -3.8 -2.9 -3.4 -4.3 1.8 -0.7 2.4 -1.6 4.2 -2.1 3.9 -0.5 -0.3 -1.3 0.6 -1.8 1.9 -0.6 1.4 -1.5 2.8 -2 3.2 -0.6 0.3 -1.1 1.7 -1.1 3.1 0 1.5 -0.6 2.4 -1.5 2.4 -1.1 0 -1.5 1.1 -1.5 4.1 0 3.6 -0.2 4 -1.5 2.9 -1.2 -1 -1.6 -0.9 -2.1 0.5 -0.4 1 -0.1 2.1 0.7 2.6 1.2 0.8 1.2 1 -0.1 1.9 -1.1 0.7 -1.6 0.5 -1.8 -0.6 -0.3 -1.2 -0.8 -0.8 -1.8 1.1 -0.8 1.5 -1.4 3.4 -1.4 4.1 0 0.8 -0.4 1.4 -1 1.4 -0.5 0 -1 1.2 -1 2.6 0 1.4 -0.4 2.3 -0.9 2 -0.5 -0.3 -1.4 0.1 -2.1 0.9 -0.7 0.8 -0.9 1.5 -0.4 1.5 0.5 0 0.4 0.4 -0.1 0.8 -2.1 1.5 -6.7 9.6 -6.9 11.9 -0.1 1.5 -0.6 2.1 -1.4 1.8 -0.7 -0.3 -1.1 -0.1 -0.8 0.4 0.3 0.5 -0.1 1.4 -0.9 2.1 -0.8 0.7 -1.5 1.7 -1.5 2.2 0 0.6 0.7 0.5 1.5 -0.2 1.3 -1.1 1.4 -1 0.9 0.3 -0.3 0.8 -1.2 1.8 -2 2.1 -0.9 0.3 -1.3 0.9 -1.1 1.3 0.3 0.5 33.2 0.8 73.1 0.8 66.2 0 72.6 -0.1 72.6 -1.6z m-70.5 -55.5 c0.5 -1.6 1.7 -3.5 2.5 -4.1 1.3 -1.1 1.3 -1.5 -0.5 -2.9 -2 -1.6 -2 -1.6 0.2 -1.1 2.3 0.5 3.9 -1.5 10.6 -13.3 1.1 -1.9 2.8 -4.8 3.8 -6.5 3.1 -5 3.2 -5.5 1.5 -7.4 -0.9 -1 -1.6 -2.3 -1.6 -3 0 -0.9 -0.9 -1.2 -2.7 -0.8 -2.4 0.5 -2.6 0.4 -1 -0.8 2.5 -1.8 1.1 -4.8 -1.9 -4.2 -1.4 0.2 -2.5 -0.2 -2.9 -1.1 -0.4 -1.1 0 -1.3 1.5 -0.9 2.5 0.6 2.5 0.7 -0.6 -5 -11 -19.9 -10.9 -19.8 -13 -16.7 -0.7 1 -1.8 2.4 -2.3 3 -0.5 0.7 -0.7 2.2 -0.4 3.5 0.3 1.8 0.2 2.1 -0.5 1 -0.9 -1.2 -1.2 -1 -1.7 1.2 -0.4 1.5 -1.2 2.7 -1.9 2.7 -0.6 0 -0.5 0.4 0.3 0.9 0.7 0.5 1 1.4 0.6 2.1 -0.6 0.9 -0.9 0.9 -1.6 -0.1 -0.6 -1 -1.2 -0.5 -2.1 1.9 -0.7 1.7 -1.5 3.2 -1.9 3.2 -0.4 0 -1.3 1.5 -2 3.3 -0.7 1.7 -2.4 4.7 -3.6 6.6 -3 4.4 -2.4 9.6 1 9.6 0.7 0 1.2 1.1 1.2 2.5 0 1.4 1 4.2 2.3 6.3 1.2 2.1 2.2 4.2 2.2 4.6 0 0.4 0.8 1.6 1.8 2.7 2 2.1 3.6 4.9 7.1 12.2 2.3 4.9 4.1 5.1 5.6 0.6z m-65.7 -5.6 c-0.5 -1.3 -3.8 -2 -3.8 -0.8 0 0.8 1.7 1.8 3.3 1.9 0.5 0.1 0.7 -0.4 0.5 -1.1z m99.2 -3.3 c-0.7 -0.8 -1.4 -1.5 -1.5 -1.5 -0.2 0 -0.5 0.7 -0.9 1.5 -0.4 1 0.1 1.5 1.6 1.5 1.7 0 1.8 -0.2 0.8 -1.5z m0.7 -49.2 c0.3 -1 1.5 -3 2.5 -4.5 1.6 -2.3 1.6 -2.8 0.4 -4.1 -1.3 -1.3 -1.2 -1.5 1.4 -2.1 1.7 -0.3 3 -1 3 -1.6 0 -0.6 1.1 -2.8 2.5 -5 2.7 -4.3 3.2 -7.5 1.3 -8.4 -0.7 -0.3 -0.3 -0.4 1 -0.3 1.7 0.1 2.8 -0.7 4 -2.8 0.9 -1.6 2 -3.2 2.3 -3.5 0.3 -0.3 1.9 -3 3.5 -6 1.6 -3 3.1 -5.7 3.4 -6 0.3 -0.3 1.4 -2.1 2.4 -4 1.1 -1.9 2.2 -3.7 2.5 -4 0.3 -0.3 1.9 -2.9 3.4 -5.9 2.3 -4.3 2.6 -5.6 1.5 -6.2 -0.7 -0.5 -28.8 -0.9 -62.4 -0.9 -52.1 0 -61.3 0.2 -63 1.5 -2.5 1.9 -3.4 1.9 -3.4 0 0 -1 -0.7 -1.4 -2.2 -1.1 -1.3 0.3 -4 0.5 -6 0.5 -2.9 0.1 -3.6 0.4 -3.2 1.6 0.4 1 0 1.5 -1.1 1.5 -1.2 0 -1.5 0.5 -0.9 2.3 0.9 3 2.3 4.6 3.7 4.3 0.7 -0.1 0.9 -0.1 0.5 0.1 -1.1 0.6 -1 3.3 0 3.3 0.8 0 2.7 3.3 3.1 5.5 0.2 0.6 1.2 2.6 2.3 4.7 1.4 2.5 2.6 3.5 3.7 3.1 1.3 -0.4 1.3 -0.3 0.2 0.5 -0.7 0.5 -1 1.5 -0.6 2.2 0.5 0.8 -0.3 0.9 -3 0.4 -2.9 -0.5 -3.7 -0.4 -3.3 0.7 0.5 1.4 5.6 3.1 7.4 2.5 0.7 -0.3 2 1.1 3 3 1 1.9 2.1 3.4 2.5 3.4 0.4 0 1 1 1.4 2.3 0.6 1.9 0.8 1.9 1.2 0.5 0.2 -1 0.9 -1.8 1.4 -1.8 1.3 0 1.1 2.4 -0.3 3.9 -1.1 1 -0.9 1.4 0.5 2.2 0.9 0.6 1.5 1.4 1.2 1.8 -0.2 0.5 0.6 2.4 1.9 4.4 1.3 1.9 2.7 4.4 3.1 5.6 0.9 2.8 2.8 1.5 2.2 -1.5 -0.5 -2.8 0.8 -2.3 1.6 0.6 0.3 1.1 0.1 2 -0.4 2 -0.5 0 -0.7 1 -0.5 2.3 0.3 1.2 0.5 2.5 0.5 3 0.1 0.4 0.5 0.7 1.1 0.7 0.5 0 0.7 -0.7 0.4 -1.5 -0.4 -0.9 0 -1.5 1 -1.5 0.9 0 1.6 0.5 1.6 1.1 0 0.8 0.5 0.8 1.5 -0.1 1.2 -1 1.8 -1 3 0 1.2 1 1.8 1 3 0 2.8 -2.3 1.7 -5.6 -1.7 -5.1 -2 0.2 2.9 -10.4 6.1 -13.3 1.2 -1.1 2.1 -2.6 2.1 -3.5 0 -0.9 0.9 -2.7 2 -4.1 1.1 -1.4 2 -3 2 -3.6 0 -0.6 0.7 -1.7 1.5 -2.4 0.8 -0.7 1.5 -2.1 1.5 -3.1 0 -1.1 -0.7 -1.9 -1.5 -1.9 -0.8 0 -1.5 -0.4 -1.5 -1 0 -1.4 2.7 -1.2 3.3 0.3 0.3 0.8 0.9 0.6 2 -0.8 0.8 -1.1 1.3 -2.3 1.1 -2.7 -0.3 -0.5 0 -0.8 0.5 -0.8 0.6 0 1.1 -0.7 1.1 -1.5 0 -0.8 0.3 -1.5 0.8 -1.5 0.8 0 5.2 -9.1 5.3 -11.1 0 -0.8 0.4 -0.4 0.9 0.9 0.5 1.2 1.3 2.2 1.9 2.2 0.8 0 1.7 2.1 2.6 5.9 0.2 0.8 0.7 1.7 1.2 2 0.4 0.3 1.7 2.4 2.8 4.6 1.1 2.2 3.2 5.5 4.7 7.4 1.5 1.9 2.4 3.9 2.1 4.4 -0.3 0.6 -0.1 0.7 0.5 0.3 0.7 -0.4 1.2 -0.1 1.2 0.7 0 1.4 2.9 7.2 6.8 13.7 1.2 1.9 2.6 4.5 3.2 5.8 0.5 1.2 1.4 2.2 2 2.2 0.5 0 0.9 0.6 0.8 1.3 -0.2 0.6 0.4 1.3 1.2 1.3 3.1 0.3 3.5 0.6 1.7 1.2 -1.6 0.7 -1.6 0.9 -0.2 3 1.9 2.7 3.3 2.8 4.2 0.5z m-98.7 -69.9 c0 -0.8 -0.6 -1.4 -1.4 -1.4 -0.9 0 -1.2 0.7 -0.9 2 0.6 2.2 2.3 1.8 2.3 -0.6z m142.4 -5 c1.8 -0.7 2.2 -3.4 0.5 -3.4 -1.9 0 -5 2.1 -4.4 3.1 0.7 1.1 1.7 1.1 3.9 0.3z m-158.4 -4.8 c0 -0.8 -0.4 -1.7 -0.9 -2.1 -1.2 -0.7 -2.4 1.2 -1.6 2.5 0.9 1.5 2.5 1.2 2.5 -0.4z"/>
  <path d="M125.2 90.8 c0.7 -1.9 3.8 -2.2 3.8 -0.4 0 1 -0.9 1.6 -2.1 1.6 -1.2 0 -1.9 -0.5 -1.7 -1.2z"/>
  <path d="M89.3 68.5 c-0.3 -0.9 -0.3 -1.8 0 -2.1 0.9 -0.9 2.7 0.6 2.7 2.2 0 1.9 -1.9 1.8 -2.7 -0.1z"/>
  <path d="M49.5 221 c0.3 -0.5 1.3 -1 2.1 -1 0.8 0 1.4 0.5 1.4 1 0 0.6 -0.9 1 -2.1 1 -1.1 0 -1.7 -0.4 -1.4 -1z"/>
  <path d="M222.2 169.3 c-2.5 -0.5 -2 -2.3 0.7 -2.3 1 0 1.8 0.7 1.8 1.5 0 0.8 -0.1 1.4 -0.1 1.4 -0.1 -0.1 -1.1 -0.4 -2.4 -0.6z"/>
  <path d="M58.8 144.2 c-1 -0.2 -1.8 -0.8 -1.8 -1.3 0 -1.1 1.1 -1.1 3 0.1 1.8 1.1 1.1 1.8 -1.2 1.2z"/>
 </g>
 <g fill="#010009">
  <path d="M257.8 247.5 c-0.4 -1.7 -0.1 -2.5 0.8 -2.5 0.8 0 1.4 1.1 1.4 2.5 0 1.4 -0.4 2.5 -0.9 2.5 -0.5 0 -1.1 -1.1 -1.3 -2.5z"/>
  <path d="M256.5 241.1 c-3.9 -2 -4.6 -3.1 -3.2 -4.6 1.4 -1.6 3 -0.8 2.3 1 -0.2 0.7 0.2 1.6 1 1.9 0.8 0.3 1.4 0 1.4 -0.7 0 -0.7 0.5 -0.4 1.1 0.6 1.6 2.8 0.7 3.5 -2.6 1.8z"/>
  <path d="M34 240.1 c0 -1.2 0.5 -2.1 1 -2.1 0.6 0 1 0.6 1 1.4 0 0.8 -0.4 1.8 -1 2.1 -0.5 0.3 -1 -0.3 -1 -1.4z"/>
  <path d="M252.9 233.3 c-0.1 -0.4 0 -1.6 0.1 -2.7 0.1 -1.1 -0.3 -1.5 -0.9 -1.2 -0.7 0.5 -0.8 0.1 -0.4 -1 0.5 -1.4 0.8 -1.3 2.4 0.7 1 1.3 1.7 2.8 1.6 3.3 -0.4 1.3 -2.7 2 -2.8 0.9z"/>
  <path d="M76.5 225 c0.5 -1.5 0.2 -2.5 -0.6 -3.1 -1.4 -0.8 -1.4 -0.8 3.6 -2.4 0.8 -0.2 1.5 -1.5 1.6 -2.7 0 -2.1 0.1 -2.2 0.8 -0.3 0.6 1.4 0.2 2.4 -1.6 3.8 -1.2 1 -2.3 2.3 -2.3 2.9 0 0.6 0.6 0.6 1.5 -0.2 0.9 -0.7 1.5 -0.8 1.5 -0.2 0 0.5 -1.2 1.7 -2.6 2.7 -2.5 1.6 -2.6 1.6 -1.9 -0.5z"/>
  <path d="M100.3 223.3 c7.6 -0.2 19.8 -0.2 27 0 7.3 0.1 1.1 0.3 -13.8 0.3 -14.8 0 -20.8 -0.2 -13.2 -0.3z"/>
  <path d="M176.8 223.3 c7.2 -0.2 19.2 -0.2 26.5 0 7.2 0.1 1.3 0.3 -13.3 0.3 -14.6 0 -20.5 -0.2 -13.2 -0.3z"/>
  <path d="M51.3 222.3 c-1.3 -0.2 -2.3 -1 -2.3 -1.8 0 -1.7 3.7 -0.8 4.4 1.1 0.3 0.8 0.4 1.3 0.3 1.3 -0.1 -0.1 -1.2 -0.4 -2.4 -0.6z"/>
  <path d="M55.1 218.8 c0.9 -0.7 1.8 -2 2.2 -2.8 0.4 -1.2 0.6 -1.2 0.6 0.2 0.1 1 -0.9 2.2 -2.1 2.8 -2 0.9 -2.1 0.9 -0.7 -0.2z"/>
  <path d="M86.5 219.1 c0.6 -0.6 12.6 -1 29 -1.1 33 -0.2 30.8 -0.2 30 0.9 -0.3 0.6 -12.7 1 -30.2 1.1 -19 0 -29.4 -0.3 -28.8 -0.9z"/>
  <path d="M151.8 218.8 c-0.5 -1.1 5.9 -1.2 33.1 -1 18.4 0.1 33.9 0.6 34.4 1.1 0.5 0.5 -13.6 1 -33.1 1 -27 0.2 -34.1 -0.1 -34.4 -1.1z"/>
  <path d="M155 213 c-0.8 -1.6 -0.8 -2 0.3 -2 0.8 0 1.7 0.9 2 2 0.3 1.1 0.1 2 -0.4 2 -0.4 0 -1.3 -0.9 -1.9 -2z"/>
  <path d="M243 210.7 c0 -1.9 2.6 -5.2 3.2 -4.1 0.8 1.3 -0.9 5.4 -2.2 5.4 -0.5 0 -1 -0.6 -1 -1.3z"/>
  <path d="M55.2 206.9 c0.2 -0.7 1 -1.5 1.7 -1.7 0.8 -0.3 1.2 0.1 0.9 0.9 -0.2 0.7 -1 1.5 -1.7 1.7 -0.8 0.3 -1.2 -0.1 -0.9 -0.9z"/>
  <path d="M60.3 205.5 c-1.7 -1.9 -1.6 -2.6 0.1 -1.9 1.5 0.6 3 3.4 1.8 3.4 -0.4 -0.1 -1.3 -0.7 -1.9 -1.5z"/>
  <path d="M136.7 204.3 c-0.4 -0.3 -0.7 -1.5 -0.7 -2.5 0 -2.8 3.4 -1.9 3.8 1 0.3 2.1 -1.6 3.1 -3.1 1.5z"/>
  <path d="M229.2 193.5 c-1.5 -1.8 -0.1 -2 1.6 -0.3 2.3 2.3 1.3 -1.4 -1 -3.9 -1.8 -2 -1.9 -2.3 -0.4 -2.3 1.8 0 4 4.5 3.2 6.7 -0.7 1.7 -1.8 1.6 -3.4 -0.2z"/>
  <path d="M169.6 191.6 c0.3 -0.9 1.1 -1.6 1.6 -1.6 1.3 0 0.5 2.3 -1 2.8 -0.7 0.2 -1 -0.2 -0.6 -1.2z"/>
  <path d="M98 190 c0 -1.3 0.5 -1.8 1.5 -1.4 0.8 0.4 1.5 1 1.5 1.4 0 0.4 -0.7 1 -1.5 1.4 -1 0.4 -1.5 -0.1 -1.5 -1.4z"/>
  <path d="M101.4 185.6 c-0.3 -0.8 -0.1 -2.3 0.5 -3.3 0.9 -1.5 1 -1.3 1.1 1.5 0 3.4 -0.7 4.2 -1.6 1.8z"/>
  <path d="M224.7 184.1 c-0.3 -1.2 -0.1 -2.1 0.3 -2.1 1.5 0 2.3 2.1 1.2 3.2 -0.6 0.6 -1.1 0.2 -1.5 -1.1z"/>
  <path d="M169.5 180 c-0.7 -2.3 0.1 -4 1.9 -4 1.8 0 2.7 3.5 1.3 4.9 -1.6 1.6 -2.5 1.4 -3.2 -0.9z"/>
  <path d="M182.4 178.4 c0.3 -0.9 0.6 -2.1 0.6 -2.7 0 -0.6 0.7 -0.4 1.6 0.5 1.8 1.8 1.1 3.8 -1.3 3.8 -1 0 -1.3 -0.6 -0.9 -1.6z"/>
  <path d="M222 177.6 c0 -0.8 0.5 -1.8 1 -2.1 0.6 -0.3 1 0.3 1 1.4 0 1.2 -0.4 2.1 -1 2.1 -0.5 0 -1 -0.6 -1 -1.4z"/>
  <path d="M176.4 175.8 c0 -1.2 0.7 -2.3 1.4 -2.6 1.6 -0.5 1.5 2.3 -0.2 3.7 -1 0.9 -1.3 0.7 -1.2 -1.1z"/>
  <path d="M194.3 176.5 c-0.9 -1 -0.9 -1.6 -0.2 -2 1.4 -0.9 2.2 0 1.7 1.8 -0.2 1.3 -0.5 1.3 -1.5 0.2z"/>
  <path d="M188.7 173.5 c-0.3 -0.7 0.3 -1.5 1.4 -1.8 1.1 -0.3 1.9 0 1.9 0.8 0 1.8 -2.7 2.7 -3.3 1z"/>
  <path d="M105.7 172.6 c-0.4 -1 0 -1.4 1.3 -1.3 1.4 0.1 1.6 0.4 0.8 1.4 -1.3 1.6 -1.5 1.6 -2.1 -0.1z"/>
  <path d="M114.6 172.3 c-1.3 -1.3 -0.5 -4.3 1.4 -5.5 1.1 -0.7 2 -1.8 2 -2.5 0 -0.7 0.4 -1.3 0.9 -1.3 0.5 0 0.9 1.1 0.9 2.5 0 1.5 -0.6 2.5 -1.4 2.5 -0.8 0 -1.4 0.9 -1.4 1.9 0 2.1 -1.3 3.4 -2.4 2.4z"/>
  <path d="M74.9 171.3 c-0.1 -0.4 -0.1 -1.2 0 -1.7 0.1 -0.5 -0.4 -1.3 -1.1 -1.7 -1 -0.7 -0.9 -0.9 0.3 -0.9 1.8 0 3.3 3.7 1.8 4.6 -0.5 0.3 -1 0.2 -1 -0.3z"/>
  <path d="M58.7 168.9 c0.6 -2.2 3.3 -2.6 3.3 -0.5 0 0.7 -0.8 1.6 -1.9 1.9 -1.4 0.3 -1.7 0 -1.4 -1.4z"/>
  <path d="M186 168.5 c0 -1 0.7 -1.5 1.8 -1.3 2.1 0.4 1.9 2.2 -0.2 2.6 -1 0.2 -1.6 -0.3 -1.6 -1.3z"/>
  <path d="M220.7 169.4 c-1 -1.1 0.3 -2.4 2.4 -2.4 1.1 0 1.9 -0.7 1.9 -1.7 0 -1.5 0.2 -1.6 1 -0.3 0.6 1 0.5 1.7 -0.6 2.3 -0.8 0.5 -1.2 1.2 -0.9 1.8 0.7 1 -2.8 1.3 -3.8 0.3z"/>
  <path d="M110.7 166.6 c2.1 -2.8 2.7 -2.8 1.6 0 -0.5 1 -1.4 2 -2.1 2.2 -0.9 0.2 -0.7 -0.5 0.5 -2.2z"/>
  <path d="M246 167.3 c0 -1.4 1.1 -2.3 4.1 -3.2 4 -1.2 6.9 -0.8 3.5 0.5 -0.9 0.3 -1.6 1.2 -1.6 1.8 0 0.7 -0.6 1.3 -1.2 1.3 -0.7 0 -2.1 0.4 -3 0.8 -1.4 0.5 -1.8 0.2 -1.8 -1.2z"/>
  <path d="M83.1 166.3 c-1.8 -1.9 -0.9 -2.6 1.4 -0.9 1 0.7 1.4 1.5 0.9 1.8 -0.5 0.3 -1.5 -0.1 -2.3 -0.9z"/>
  <path d="M147.5 163.9 c-0.4 -0.6 -0.5 -1.3 -0.2 -1.6 0.7 -0.7 2.7 0.6 2.7 1.8 0 1.2 -1.7 1.2 -2.5 -0.2z"/>
  <path d="M154.6 163.4 c-1.7 -1.2 -1.7 -1.4 -0.4 -1.4 0.9 0 2 0.5 2.3 1.1 1.1 1.7 0.2 1.8 -1.9 0.3z"/>
  <path d="M181 163.5 c0 -0.8 -0.6 -1.6 -1.2 -1.8 -0.8 -0.3 -0.6 -0.6 0.5 -0.6 0.9 -0.1 1.7 0.4 1.7 0.9 0 1.6 4.8 1.1 5.3 -0.5 0.4 -1.1 0.5 -1.1 0.3 0.2 -0.1 2.1 -6.6 3.8 -6.6 1.8z"/>
  <path d="M113.1 161.8 c-0.1 -0.9 -0.7 -1.9 -1.3 -2.1 -0.7 -0.3 0.1 -0.6 1.7 -0.6 1.7 0 2.5 0.3 1.9 0.7 -0.6 0.4 -1.4 1.4 -1.7 2.2 -0.4 1.2 -0.6 1.2 -0.6 -0.2z"/>
  <path d="M256 160.9 c0 -2.2 2.5 -2.6 3.3 -0.5 0.3 0.8 -0.2 1.6 -1.4 1.9 -1.4 0.4 -1.9 0 -1.9 -1.4z"/>
  <path d="M138 159 c0 -1.3 1.1 -1.3 3 0 1.2 0.8 1.1 1 -0.7 1 -1.3 0 -2.3 -0.4 -2.3 -1z"/>
  <path d="M32.6 155.5 c0.4 -0.8 1 -1.2 1.5 -0.9 1.4 0.8 1 2.4 -0.6 2.4 -0.9 0 -1.2 -0.6 -0.9 -1.5z"/>
  <path d="M273.7 150 c-1.6 -1.9 -1.6 -2 0.3 -2 1.3 0 2 0.7 2 2 0 1.1 -0.1 2 -0.3 2 -0.1 0 -1 -0.9 -2 -2z"/>
  <path d="M21.8 149.2 c1.9 -2.1 3.2 -1.9 3.2 0.6 0 1.3 -0.2 1.4 -0.9 0.3 -0.6 -0.9 -1.1 -1 -1.5 -0.2 -0.4 0.6 -1.1 1.1 -1.7 1.1 -0.5 0 -0.1 -0.8 0.9 -1.8z"/>
  <path d="M67.4 146.2 c0.3 -0.6 0.1 -1.2 -0.6 -1.4 -1.4 -0.5 -2 -3.8 -0.7 -3.8 0.5 0 0.9 0.5 0.9 1 0 0.6 0.6 1 1.4 1 1.7 0 1.4 3.2 -0.4 3.8 -0.7 0.3 -1 0 -0.6 -0.6z"/>
  <path d="M245 145 c-0.8 -0.5 -1.1 -1.2 -0.7 -1.6 0.4 -0.4 1.5 0 2.4 0.9 1.8 1.8 0.8 2.3 -1.7 0.7z"/>
  <path d="M15.5 144.2 c-0.9 -0.9 -0.5 -6.1 0.5 -6.7 0.6 -0.3 1 0.1 1 0.9 0 0.9 0.6 1.6 1.4 1.6 1.1 0 2.6 2 2.6 3.5 0 0.6 -5 1.2 -5.5 0.7z"/>
  <path d="M49 143.9 c0 -1.9 3.2 -3.7 5 -2.8 0.8 0.4 2.7 1 4.3 1.4 1.5 0.3 2.7 1 2.7 1.5 0 1.7 -3.6 1.1 -6.3 -1 l-2.6 -2 -0.6 2 c-0.7 2.1 -2.5 2.8 -2.5 0.9z"/>
  <path d="M137 141.5 c0 -0.8 0.5 -1.5 1 -1.5 0.6 0 1 0.7 1 1.5 0 0.8 -0.4 1.5 -1 1.5 -0.5 0 -1 -0.7 -1 -1.5z"/>
  <path d="M21 137.6 c0 -0.9 3.2 -3.6 4.2 -3.6 0.6 0 0.1 0.9 -1.2 2 -2.3 2 -3 2.4 -3 1.6z"/>
  <path d="M56.2 136 c-0.8 -1.3 -0.8 -2 -0.2 -2 0.6 0 1.3 0.7 1.7 1.5 0.9 2.4 -0.1 2.7 -1.5 0.5z"/>
  <path d="M243 135.3 c0 -0.1 0.9 -0.7 1.9 -1.3 2.1 -1.1 5.4 -0.3 4.6 1.1 -0.5 0.7 -6.5 0.9 -6.5 0.2z"/>
  <path d="M38 133 c0 -0.5 1.1 -1 2.5 -1 1.4 0 2.5 0.5 2.5 1 0 0.6 -1.1 1 -2.5 1 -1.4 0 -2.5 -0.4 -2.5 -1z"/>
  <path d="M77 133 c-2.4 -1.6 0.6 -2.9 4.9 -2.3 4.4 0.7 5 1.1 3.1 2.3 -2 1.3 -6.1 1.2 -8 0z"/>
  <path d="M163.5 132 c1 -1.1 2.5 -2 3.4 -1.9 1 0 0.8 0.3 -0.6 0.9 -1.3 0.5 -2.3 1.4 -2.3 2 0 0.5 -0.5 1 -1.2 1 -0.6 0 -0.3 -0.9 0.7 -2z"/>
  <path d="M203 128.5 c0 -1.4 0.3 -2.5 0.8 -2.5 1.1 0 3.2 3.7 2.5 4.4 -1.5 1.5 -3.3 0.4 -3.3 -1.9z"/>
  <path d="M158.9 123.8 c-2.1 -2.9 -2.4 -4.8 -0.9 -4.8 0.6 0 1 0.9 1 2 0 2.7 4 4.4 5.6 2.4 1.2 -1.6 2.4 -0.8 2.4 1.5 0 2.8 -5.9 2 -8.1 -1.1z"/>
  <path d="M211.2 114.6 c0.1 -1.3 0.6 -2.2 1 -2 1.1 0.7 1 3.2 -0.2 3.9 -0.6 0.3 -0.9 -0.4 -0.8 -1.9z"/>
  <path d="M111 113.5 c-1 -1.2 -1 -1.8 0 -3 1 -1.2 1 -1.5 0 -1.5 -1 0 -1 -0.3 0 -1.5 0.7 -0.8 1 -2.4 0.7 -3.6 -0.4 -1.6 -0.3 -1.8 0.9 -0.8 1.6 1.3 1.9 3.9 0.4 3.9 -0.5 0 -0.8 1 -0.6 2.3 0.3 1.2 0.5 2.5 0.5 3 0.1 0.4 0.5 0.7 1.1 0.7 0.5 0 0.7 -0.7 0.4 -1.5 -0.4 -1 0 -1.5 1.1 -1.5 1.1 0 1.5 0.7 1.3 2.2 -0.4 2.6 -4.1 3.4 -5.8 1.3z"/>
  <path d="M183.3 104.3 c-0.4 -1 -1.2 -2.2 -2 -2.6 -1.8 -1.1 -1.7 -3.7 0.2 -3.7 0.8 0 1.5 0.9 1.5 1.9 0 1 0.7 2.1 1.5 2.5 1.7 0.6 2.1 3.6 0.5 3.6 -0.6 0 -1.4 -0.8 -1.7 -1.7z"/>
  <path d="M216 105 c0 -0.6 0.6 -1.3 1.4 -1.6 0.9 -0.3 1.2 -1.2 0.8 -2.2 -0.5 -1.4 -0.4 -1.5 1 -0.2 1.2 1.1 1.3 1.9 0.4 3.2 -1.2 1.9 -3.6 2.4 -3.6 0.8z"/>
  <path d="M189.2 103.4 c-1.1 -1.2 -0.9 -1.4 0.8 -1.4 1.1 0 2 0.4 2 0.9 0 1.7 -1.5 1.9 -2.8 0.5z"/>
  <path d="M81 100.2 c0 -0.7 -1.1 -1.2 -2.5 -1.2 -1.4 0 -2.5 -0.4 -2.5 -1 0 -0.5 0.9 -1 2 -1 1.2 0 2 -0.7 2.1 -1.7 0 -1 0.5 -0.3 1 1.6 0.6 1.8 0.8 3.6 0.5 3.9 -0.3 0.3 -0.6 0 -0.6 -0.6z"/>
  <path d="M124 100.5 c0 -1.5 1.8 -4 2.4 -3.4 0.3 0.3 -0.1 1.4 -0.9 2.5 -0.8 1 -1.4 1.5 -1.5 0.9z"/>
  <path d="M220.4 98.8 c-0.4 -0.6 -0.2 -1.4 0.4 -1.6 1.6 -0.5 1.5 -4.9 0 -5.5 -0.8 -0.3 -0.7 -0.6 0.4 -0.6 2.4 -0.1 3.1 1.5 2.4 5.5 -0.7 3.5 -1.9 4.3 -3.2 2.2z"/>
  <path d="M198.8 90 c0.3 -1.8 0 -3 -0.7 -3 -0.6 0 -1.1 -0.5 -1.1 -1 0 -0.7 0.6 -0.7 1.9 -0.1 1 0.6 2.1 0.8 2.3 0.5 0.3 -0.2 0 1.1 -0.6 3.1 -1.3 4.3 -2.4 4.6 -1.8 0.5z"/>
  <path d="M102 90.1 c0 -1.2 0.5 -2.1 1 -2.1 0.6 0 1 0.6 1 1.4 0 0.8 -0.4 1.8 -1 2.1 -0.5 0.3 -1 -0.3 -1 -1.4z"/>
  <path d="M124 90.5 c0 -0.9 0.9 -1.5 2.5 -1.5 1.6 0 2.5 0.6 2.5 1.5 0 0.9 -0.9 1.5 -2.5 1.5 -1.6 0 -2.5 -0.6 -2.5 -1.5z"/>
  <path d="M71.1 82.6 c-0.7 -0.8 -2.1 -1.2 -3.1 -0.9 -2.2 0.6 -2.8 -1.2 -0.7 -2 1.9 -0.7 5.7 1.1 5.7 2.8 0 1.9 -0.4 1.9 -1.9 0.1z"/>
  <path d="M66.5 77.2 c-2.7 -0.5 -3.9 -1.8 -2.3 -2.5 0.8 -0.2 2.2 0.1 3.3 0.9 2.2 1.6 1.8 2.2 -1 1.6z"/>
  <path d="M89.3 77.3 c-2.2 -0.8 -1.4 -3.1 1 -3 1.2 0 3 -0.3 4 -0.7 1 -0.5 1.7 -0.4 1.7 0.3 0 0.6 -0.9 1.1 -2.1 1.1 -1.5 0 -1.9 0.5 -1.5 1.5 0.5 1.5 -0.7 1.8 -3.1 0.8z"/>
  <path d="M136.8 74.3 c-2.1 -0.5 -2.4 -2.3 -0.4 -2.3 0.8 0 1.6 0.7 2 1.5 0.3 0.8 0.4 1.4 0.3 1.4 -0.1 -0.1 -1 -0.3 -1.9 -0.6z"/>
  <path d="M59 70.5 c0 -0.8 0.9 -1.5 2 -1.5 1.1 0 2 0.7 2 1.5 0 0.8 -0.9 1.5 -2 1.5 -1.1 0 -2 -0.7 -2 -1.5z"/>
  <path d="M89.7 69.3 c-1.3 -1.2 -0.7 -3.3 0.8 -3.3 0.8 0 1.5 0.9 1.5 2 0 2 -1.1 2.6 -2.3 1.3z"/>
  <path d="M55.5 66 c-0.3 -0.5 -0.4 -1 -0.1 -1 0.2 0 1.2 -0.3 2 -0.6 1.2 -0.5 1.5 -0.2 1 1 -0.7 1.8 -2 2.1 -2.9 0.6z"/>
  <path d="M133 65.5 c0 -1.6 1.6 -2 2.4 -0.6 0.3 0.5 -0.1 1.1 -0.9 1.5 -0.9 0.3 -1.5 0 -1.5 -0.9z"/>
  <path d="M241.7 62.1 c0.3 -1.2 1 -2.1 1.5 -2.1 1.3 0 0.6 3.2 -0.9 3.7 -0.7 0.3 -0.9 -0.3 -0.6 -1.6z"/>
  <path d="M208 58.9 c0 -1.1 0.5 -1.7 1 -1.4 0.6 0.3 1 1.3 1 2.1 0 0.8 -0.4 1.4 -1 1.4 -0.5 0 -1 -0.9 -1 -2.1z"/>
  <path d="M79.5 59 c-0.3 -0.5 0 -1 0.9 -1 0.8 0 2.3 -0.3 3.3 -0.6 1.6 -0.6 1.6 -0.5 -0.2 0.9 -2.4 1.9 -3.2 2.1 -4 0.7z"/>
  <path d="M242.6 57.9 c0.4 -0.6 0.1 -1.5 -0.6 -1.9 -1.6 -1 -0.4 -3 1.9 -3 1.4 0 1.7 0.6 1.4 2.4 -0.3 1.4 -1.2 2.7 -2 3 -0.8 0.4 -1.1 0.2 -0.7 -0.5z"/>
  <path d="M148.4 54.9 c-0.1 -1.9 0.4 -2.9 1.3 -2.9 1 0 1.2 0.7 0.8 2.3 -1.1 3.5 -2 3.8 -2.1 0.6z"/>
  <path d="M212.2 56.4 c-0.7 -0.8 -1.2 -2 -0.9 -2.7 0.2 -0.7 0.9 -0.2 1.6 1.1 1.5 2.8 1.1 3.6 -0.7 1.6z"/>
  <path d="M44.5 50.9 c-0.4 -0.6 -0.5 -1.3 -0.2 -1.6 0.7 -0.7 2.7 0.6 2.7 1.8 0 1.2 -1.7 1.2 -2.5 -0.2z"/>
  <path d="M77.5 50.2 c-0.3 -0.8 -0.1 -2 0.4 -2.5 0.5 -0.5 0.7 -1.6 0.4 -2.3 -0.4 -1 0.3 -1.4 2.1 -1.4 1.4 0 2.6 0.5 2.6 1.1 0 0.5 0.5 0.7 1.1 0.3 0.8 -0.4 0.8 -0.9 0 -1.7 -1.9 -1.9 -1.3 -4.7 0.9 -4.7 1.1 0 2 0.5 2 1 0 0.6 -0.4 1 -0.9 1 -1.4 0 0 4.1 1.5 4.7 2.7 1 1.3 2.3 -2.6 2.3 -2.9 0 -3.8 0.4 -3.4 1.4 0.3 0.8 -0.3 1.6 -1.5 1.9 -1.2 0.3 -2.2 -0.1 -2.6 -1.1z"/>
  <path d="M92.6 49.3 c0.6 -2.2 0.4 -2.5 -1 -2 -1.1 0.5 -1.6 0.1 -1.6 -1.3 0 -2.4 1.5 -2.6 2.4 -0.4 0.3 0.8 1 1.3 1.5 1 0.5 -0.4 1.6 -0.4 2.4 0 1.2 0.4 1.1 1 -0.8 3 -2.9 3.1 -3.7 3 -2.9 -0.3z"/>
  <path d="M39.3 36.7 c-3 -4.3 -2.9 -4.7 1 -4.7 2.6 0.1 2.9 0.2 1.5 1.1 -2.5 1.4 -2.4 4.3 0.2 3.6 1.1 -0.3 2.3 -0.1 2.6 0.5 0.4 0.6 1 0.5 1.5 -0.3 0.7 -1.1 0.9 -1 0.9 0.4 0 0.9 -0.6 1.7 -1.4 1.7 -0.8 0 -2 0.2 -2.8 0.5 -0.7 0.3 -2.3 -0.9 -3.5 -2.8z"/>
  <path d="M256.6 30.6 c-0.9 -3.3 -0.7 -3.6 2 -3.6 2 0 2.4 0.3 1.7 1.3 -0.6 0.6 -0.9 1.9 -0.8 2.8 0.4 2.4 -2.3 1.9 -2.9 -0.5z"/>
 </g>
 <g fill="#a69820">
  <path d="M257.7 249.3 c-1.3 -1.2 -0.7 -4.3 0.8 -4.3 0.9 0 1.5 0.9 1.5 2.5 0 2.4 -1 3.2 -2.3 1.8z"/>
  <path d="M254.8 240.3 c-2.2 -0.5 -3 -3 -1.2 -3.7 0.8 -0.3 1.4 0.1 1.4 0.8 0 0.8 0.6 1.6 1.3 1.9 1.7 0.6 0.5 1.4 -1.5 1z"/>
  <path d="M76.6 224.8 c0.4 -2 0.2 -2.8 -0.7 -2.8 -0.9 0 -1 -0.3 -0.2 -1.1 0.6 -0.6 1.7 -0.9 2.5 -0.7 1.1 0.2 1 0.9 -0.4 3.8 -1.6 3 -1.7 3.1 -1.2 0.8z"/>
  <path d="M81 216.6 c0 -0.8 -0.6 -1.7 -1.2 -1.9 -0.8 -0.3 -0.6 -0.6 0.5 -0.6 1.1 -0.1 1.7 0.6 1.7 1.9 0 1.1 -0.2 2 -0.5 2 -0.3 0 -0.5 -0.6 -0.5 -1.4z"/>
  <path d="M146.7 213.7 c-1.1 -2.9 -0.9 -4.3 0.4 -3 0.6 0.6 0.9 1.9 0.7 2.9 -0.3 1.8 -0.4 1.8 -1.1 0.1z"/>
  <path d="M229.2 211.3 c0.4 -2.1 3.3 -2.5 3.3 -0.3 0 0.8 -0.8 1.6 -1.8 1.8 -1.4 0.3 -1.8 -0.1 -1.5 -1.5z"/>
  <path d="M83.3 210.4 c-1.9 -2 -1.6 -3.4 0.7 -3.4 2 0 2.6 1.6 1.2 3.6 -0.5 0.9 -1 0.8 -1.9 -0.2z"/>
  <path d="M135 193.1 c-0.7 -1.5 -0.7 -2.1 0 -2.1 1.2 0 2.5 2.8 1.7 3.6 -0.3 0.3 -1 -0.4 -1.7 -1.5z"/>
  <path d="M202.4 189.8 c-1.4 -2.8 -1.5 -3.1 -0.2 -2 1.4 1.1 3.1 5.2 2.2 5.2 -0.2 0 -1.1 -1.5 -2 -3.2z"/>
  <path d="M132.9 189.8 c-0.7 -2.5 -0.7 -4.8 0.1 -4.8 0.6 0 1 1.1 1 2.5 0 2 -0.7 3.5 -1.1 2.3z"/>
  <path d="M169.4 179.4 c-0.8 -3 0.5 -4.7 2.5 -3.5 0.9 0.6 1.1 1.8 0.7 3.5 -0.8 3.3 -2.4 3.3 -3.2 0z"/>
  <path d="M194.7 176.6 c-0.4 -1 -0.5 -2.1 -0.2 -2.4 0.9 -0.9 1.7 0.6 1.3 2.5 -0.3 1.7 -0.4 1.7 -1.1 -0.1z"/>
  <path d="M105.2 172.4 c-1 -1.2 -1 -1.4 0.2 -1.4 1.7 0 3 1.6 1.9 2.3 -0.5 0.3 -1.4 -0.1 -2.1 -0.9z"/>
  <path d="M239.5 170.1 c-0.3 -0.5 -0.1 -1.2 0.4 -1.5 0.5 -0.4 1.2 0 1.4 0.6 0.4 0.9 0.6 0.8 0.6 -0.2 0.1 -1.9 2.7 -3.5 6.8 -4.4 2.1 -0.5 3 -1.2 2.7 -2.1 -0.6 -1.6 0.1 -2 4.4 -3 5.5 -1.2 3.7 1.6 -4.4 6.8 -7.3 4.6 -10.7 5.7 -11.9 3.8z"/>
  <path d="M59 168.5 c0 -0.8 0.9 -1.5 1.9 -1.5 2.6 0 3.5 1.6 1.5 2.4 -2.5 1 -3.4 0.7 -3.4 -0.9z"/>
  <path d="M112.2 160.4 c-1.1 -1.2 -0.8 -1.4 1.5 -1.4 1.5 0 2.4 0.4 1.8 0.8 -0.5 0.4 -1.2 1 -1.5 1.4 -0.3 0.3 -1.1 0 -1.8 -0.8z"/>
  <path d="M137 159 c0 -0.5 0.6 -1 1.4 -1 0.8 0 1.8 0.5 2.1 1 0.3 0.6 -0.3 1 -1.4 1 -1.2 0 -2.1 -0.4 -2.1 -1z"/>
  <path d="M268.7 153 c0.6 -2.1 1.8 -2.6 2.8 -1.1 0.3 0.6 -0.3 1.5 -1.4 2 -1.6 0.9 -1.8 0.8 -1.4 -0.9z"/>
  <path d="M273.2 149.5 c-1.1 -1.3 -0.9 -1.5 0.8 -1.5 1.1 0 2 0.7 2 1.5 0 1.9 -1.1 1.9 -2.8 0z"/>
  <path d="M233 148.8 c-1.6 -0.7 -2 -1.2 -1.2 -1.5 0.8 -0.3 2.1 0.2 3 1.1 1.9 1.8 1.7 1.9 -1.8 0.4z"/>
  <path d="M211 141.5 c0 -1.6 1.6 -2 2.4 -0.6 0.3 0.5 -0.1 1.1 -0.9 1.5 -0.9 0.3 -1.5 0 -1.5 -0.9z"/>
  <path d="M221.8 142.2 c-1.9 -0.4 -2.4 -1.7 -1 -2.6 1.1 -0.7 3.5 1 3.1 2.1 -0.2 0.5 -1.2 0.7 -2.1 0.5z"/>
  <path d="M56.2 135.8 c-1.6 -1.6 -1.5 -3.8 0.1 -3.8 0.6 0 1.3 1.1 1.3 2.5 0.2 2.9 0.2 2.9 -1.4 1.3z"/>
  <path d="M165.8 126.4 c-0.5 -0.4 -0.8 -1.6 -0.8 -2.8 0 -1.4 0.3 -1.7 1.1 -0.9 0.6 0.6 0.9 1.9 0.7 2.8 -0.1 0.9 -0.6 1.3 -1 0.9z"/>
  <path d="M89.4 115.3 c0.3 -0.6 0.2 -1.4 -0.4 -1.8 -1.3 -0.8 -1.3 -2.5 0 -2.5 1.7 0 2.4 3 1 4.3 -1 0.9 -1.1 0.9 -0.6 0z"/>
  <path d="M111 113.5 c-0.6 -0.8 -0.8 -2 -0.4 -2.6 0.5 -0.9 1.1 -0.7 2.1 0.6 2.3 3.3 0.9 5.1 -1.7 2z"/>
  <path d="M155.2 108.3 c-1.8 -3.2 -1.6 -5.1 0.4 -3.1 0.9 0.8 1.4 2.4 1.2 3.4 -0.4 1.8 -0.5 1.7 -1.6 -0.3z"/>
  <path d="M146 104.6 c0 -0.8 -0.6 -1.7 -1.2 -1.9 -0.8 -0.3 -0.6 -0.6 0.5 -0.6 1.1 -0.1 1.7 0.6 1.7 1.9 0 1.1 -0.2 2 -0.5 2 -0.3 0 -0.5 -0.6 -0.5 -1.4z"/>
  <path d="M80.6 99.5 c-0.3 -0.9 -0.6 -2.6 -0.5 -3.8 0.1 -1.6 0.4 -1.2 1 1.2 1 3.4 0.6 5.5 -0.5 2.6z"/>
  <path d="M198.2 92 c1.4 -2.2 2.4 -1.9 1.5 0.5 -0.4 0.8 -1.1 1.5 -1.7 1.5 -0.6 0 -0.6 -0.7 0.2 -2z"/>
  <path d="M73 85.8 c0 -0.6 -0.7 -2 -1.7 -3 -2.1 -2.3 -0.8 -3.7 1.4 -1.5 1.8 1.7 2.5 5.7 1.1 5.7 -0.4 0 -0.8 -0.5 -0.8 -1.2z"/>
  <path d="M81 80 c0 -0.7 1.4 -0.8 3.8 -0.4 5.1 0.9 5.3 1.4 0.4 1.4 -2.3 0 -4.2 -0.5 -4.2 -1z"/>
  <path d="M85.8 77.2 c-2.7 -0.2 -4.8 -0.8 -4.8 -1.4 0 -0.6 1.5 -0.8 3.5 -0.6 1.9 0.2 3.5 0 3.5 -0.4 0 -1.1 1.2 -1 3 0.2 2.4 1.5 0 2.5 -5.2 2.2z"/>
  <path d="M156.6 70.4 c-1.7 -1.2 -1.7 -1.4 -0.4 -1.4 0.9 0 2 0.5 2.3 1.1 1.1 1.7 0.2 1.8 -1.9 0.3z"/>
  <path d="M242.6 57.5 c0.4 -0.8 0.1 -1.5 -0.5 -1.5 -1.3 0 -1.4 -1 -0.2 -2.9 0.5 -0.8 1.6 -1.1 2.5 -0.8 1.5 0.6 1.5 0.9 0.1 3.7 -1.6 3.1 -2.9 4.1 -1.9 1.5z"/>
  <path d="M223 48.6 c0 -0.9 -0.4 -1.4 -1 -1.1 -0.5 0.3 -1 -0.3 -1 -1.4 0 -1.2 0.4 -2.1 0.9 -2.1 1 0 2.5 5 1.6 5.8 -0.3 0.3 -0.5 -0.2 -0.5 -1.2z"/>
  <path d="M248 47.6 c0 -0.8 -0.6 -1.7 -1.2 -1.9 -0.8 -0.3 -0.6 -0.6 0.5 -0.6 1.1 -0.1 1.7 0.6 1.7 1.9 0 1.1 -0.2 2 -0.5 2 -0.3 0 -0.5 -0.6 -0.5 -1.4z"/>
  <path d="M80.3 47 c-1.3 -0.5 -2.3 -1.7 -2.3 -2.5 0 -1.2 0.6 -1.5 2.3 -0.9 1.2 0.4 2.5 1.1 2.8 1.6 0.4 0.7 0.9 0.6 1.3 -0.1 0.7 -1.1 4.6 0.7 4.6 2.1 0 1.1 -6 0.9 -8.7 -0.2z"/>
  <path d="M89.6 46.4 c-1 -2.5 -0.7 -3.4 0.8 -2.8 2 0.8 2.7 3.1 1.1 3.8 -0.7 0.2 -1.6 -0.2 -1.9 -1z"/>
  <path d="M83.2 40.8 c0.2 -1.3 0.9 -2.3 1.7 -2.3 2.3 0 2.3 1.9 0 3.3 -1.9 1.2 -2 1.1 -1.7 -1z"/>
  <path d="M71.5 34.2 c0.4 -1.3 0.1 -2.9 -0.6 -3.8 -1.3 -1.6 -0.6 -3 1 -1.9 1.4 0.8 1.4 4.5 0 6.5 -0.8 1.2 -0.9 1 -0.4 -0.8z"/>
  <path d="M227.2 33.1 c-1.1 -0.7 -1 -1 0.3 -1.5 2.3 -0.9 2.5 -0.8 2.5 0.9 0 1.7 -0.9 1.9 -2.8 0.6z"/>
  <path d="M256.6 30.7 c-1.1 -4.1 -0.7 -4.7 2.4 -4.5 2.6 0.2 2.8 0.4 1.5 1.8 -0.8 0.9 -1.5 2.2 -1.5 2.8 0 2.2 -1.8 2.1 -2.4 -0.1z"/>
 </g>
</svg>